<svg version="1.1" xmlns="http://www.w3.org/2000/svg" enable-background="new 0 0 288 288" viewBox="0 0 288 288" x="0px" y="0px" width="288px" height="288px"><style type="text/css">.kg2nr81x {fill: #1A1A1A;}</style><g>
    <path class="kg2nr81x" d="M10.746,91.153c4.955,2.114,10.113,2.993,15.491,2.553c0.447-0.036,0.911-0.18,1.367,0.037		c0.027,0.501-0.32,0.867-0.439,1.31c-0.298,1.109,0.164,2.056,1.248,2.407c0.524,0.169,1.069,0.236,1.629,0.162		c0.841-0.111,1.664-0.279,2.47-0.553c2.062-0.701,3.933-1.754,5.69-3.026c1.473-1.066,2.946-2.134,4.428-3.186		c0.802-0.569,1.684-0.948,2.667-1.115c2-0.341,3.986-0.768,5.992-1.073c1.575-0.239,3.167-0.444,4.779-0.255		c0.06,0.543-0.241,0.932-0.395,1.358c-0.595,1.655-0.927,3.346-0.699,5.105c0.87,6.705,8.333,11.677,14.882,9.926		c4.013-1.073,6.641-4.657,6.442-8.784c-0.19-3.936-3.273-7.333-7.255-8.013c-0.676-0.115-1.375-0.245-2.009,0		c-1.224,0.473-2.253,0.172-3.311-0.486c-0.599-0.373-1.332-0.526-1.989-0.815c-0.288-0.127-0.691-0.041-0.87-0.429		c0.068-0.111,0.116-0.232,0.2-0.317c0.296-0.302,0.597-0.6,0.91-0.884c3.345-3.023,7.385-4.193,11.778-4.278		c4.757-0.092,9.311,1.036,13.763,2.597c5.655,1.983,10.893,4.814,16.007,7.906c4.124,2.493,8.201,5.076,12.574,7.133		c4.357,2.05,8.85,3.32,13.746,2.63c4.924-0.693,8.849-2.945,11.607-7.135c1.008-1.532,1.752-3.179,2.259-4.939		c0.069-0.239-0.057-0.622,0.356-0.68c0.201,0.17,0.184,0.395,0.239,0.593c0.068,0.244,0.134,0.489,0.217,0.729		c1.823,5.273,5.159,9.078,10.606,10.754c3.553,1.093,7.156,1.162,10.772,0.253c3.896-0.98,7.439-2.774,10.891-4.759		c2.932-1.687,5.825-3.443,8.724-5.187c5.232-3.147,10.634-5.943,16.474-7.791c4.785-1.514,9.644-2.554,14.723-1.921		c3.817,0.476,7.162,1.928,9.917,4.647c0.217,0.214,0.596,0.375,0.451,0.831c-1.289,0.39-2.581,0.81-3.727,1.546		c-0.516,0.332-0.966,0.36-1.542,0.167c-0.76-0.255-1.567-0.363-2.379-0.242c-3.053,0.455-5.377,2.03-6.82,4.734		c-2.558,4.793,0.323,10.854,5.727,12.174c3.13,0.764,6.051,0.118,8.792-1.444c5.229-2.979,7.167-8.498,5.015-14.14		c-0.099-0.259-0.33-0.512-0.147-0.836c0.496-0.13,1.005-0.07,1.509-0.052c2.844,0.099,5.61,0.739,8.403,1.207		c1.588,0.266,2.994,0.846,4.273,1.801c1.322,0.987,2.652,1.962,3.997,2.919c1.909,1.358,3.957,2.445,6.237,3.041		c0.941,0.246,1.895,0.443,2.88,0.209c1.381-0.329,1.94-1.322,1.51-2.664c-0.124-0.387-0.459-0.714-0.369-1.172		c0.477-0.137,0.942-0.037,1.4,0.001c5.379,0.44,10.526-0.479,15.491-2.565c3.578-1.503,6.196-4.053,8.134-7.344		c1.11-1.884,1.747-3.926,1.805-6.139c0.134-5.104-2.86-9.49-7.551-11.003c-1.864-0.601-3.737-0.691-5.598,0.009		c-3.26,1.226-5.896,4.967-5.998,8.446c-0.074,2.518,0.758,4.645,2.658,6.321c0.641,0.566,1.36,1.002,2.223,1.158		c1.62,0.294,2.853-0.865,2.65-2.497c-0.1-0.808-0.518-1.427-1.164-1.887c-0.757-0.54-1.533-1.053-2.308-1.569		c-1.035-0.689-1.363-1.621-1.162-2.848c0.558-3.414,4.126-5.739,7.504-4.843c4.448,1.179,7.11,5.761,5.978,10.435		c-1.028,4.244-3.753,7.104-7.624,8.948c-1.963,0.935-4.06,1.439-6.194,1.79c-5.243,0.864-10.47,0.506-15.654-0.409		c-4.078-0.72-8.108-1.704-12.169-2.521c-3.939-0.792-7.882-1.622-11.939-1.329c-0.693,0.05-0.976-0.362-1.33-0.777		c-2.159-2.531-4.769-4.456-7.922-5.52c-3.926-1.325-7.976-1.853-12.126-1.503c-5.106,0.431-9.959,1.848-14.697,3.725		c-0.41,0.162-0.795,0.436-1.253,0.443c-0.172-0.419,0.029-0.733,0.049-1.06c0.085-1.407-0.943-2.222-2.301-1.822		c-0.537,0.158-0.997,0.455-1.439,0.786c-1.091,0.816-2.034,1.789-2.908,2.823c-1.092,1.292-2.168,2.6-3.2,3.94		c-1.962,2.547-4.258,4.684-7.147,6.158c-1.43,0.73-2.802,1.575-4.228,2.313c-1.916,0.992-3.891,1.852-5.96,2.492		c-3.186,0.985-6.394,1.12-9.643,0.368c-5.656-1.308-10.129-6.378-10.315-12.054c-0.19-5.777,1.841-10.709,6.414-14.395		c2.898-2.336,6.231-3.357,9.964-2.712c3.62,0.626,6.339,2.528,7.859,5.917c0.906,2.018,0.941,4.101-0.074,6.132		c-0.617,1.235-1.607,1.932-2.99,2.049c-0.806,0.068-1.459-0.288-2.118-0.705c-0.573-0.363-1.116-0.239-1.474,0.211		c-0.351,0.44-0.321,0.992,0.115,1.502c0.452,0.528,1.044,0.861,1.693,1.078c0.898,0.299,1.82,0.361,2.755,0.183		c2.562-0.486,4.51-2.512,5.069-5.389c0.676-3.481-0.286-6.544-2.602-9.171c-3.998-4.536-10.507-5.852-16.255-3.215		c-5.2,2.386-8.4,6.535-10.059,11.936c-0.271,0.881-0.449,1.791-0.67,2.687c-0.077,0.009-0.154,0.018-0.231,0.027		c-0.128-0.561-0.252-1.123-0.384-1.683c-0.802-3.408-2.351-6.435-4.778-8.96c-4.131-4.297-9.092-6.31-15.04-4.87		c-4.595,1.113-7.818,3.929-9.2,8.553c-0.801,2.682-0.511,5.286,1.112,7.642c1.471,2.135,4.115,3.048,6.479,2.274		c0.735-0.241,1.401-0.609,1.866-1.251c0.339-0.467,0.338-0.957-0.053-1.393c-0.347-0.387-0.79-0.477-1.268-0.258		c-0.19,0.087-0.357,0.225-0.54,0.331c-1.391,0.811-3.055,0.537-4.13-0.691c-0.569-0.651-0.915-1.423-1.104-2.257		c-0.618-2.73,0.139-5.114,1.941-7.176c3.113-3.564,8.103-4.714,12.766-2.827c5.041,2.04,7.974,5.97,9.375,11.105		c0.72,2.639,0.97,5.328,0.147,8.011c-1.826,5.952-6.835,9.626-13.331,9.85c-3.114,0.107-6.038-0.644-8.875-1.818		c-3.016-1.248-5.836-2.877-8.653-4.515c-1.778-1.034-3.338-2.302-4.642-3.888c-1.048-1.274-2.094-2.55-3.128-3.835		c-1.088-1.353-2.207-2.679-3.502-3.84c-0.661-0.593-1.342-1.17-2.214-1.446c-1.402-0.445-2.488,0.419-2.352,1.87		c0.03,0.322,0.267,0.636,0.052,0.958c-0.239,0.073-0.419-0.05-0.608-0.133c-2.524-1.105-5.147-1.912-7.798-2.648		c-5.51-1.529-11.051-1.934-16.684-0.707c-3.689,0.803-6.94,2.388-9.65,5.032c-0.692,0.675-1.23,1.662-2.049,2.007		c-0.825,0.347-1.912,0.051-2.883,0.074c-3.7,0.089-7.291,0.923-10.899,1.63c-4.851,0.951-9.628,2.287-14.565,2.792		c-4.479,0.459-8.947,0.568-13.386-0.385c-2.672-0.573-5.23-1.43-7.43-3.105c-2.956-2.251-4.9-5.133-5.173-8.931		c-0.299-4.161,2.243-7.788,6.122-8.853c3.526-0.968,7.176,1.504,7.615,5.13c0.119,0.981-0.174,1.757-0.954,2.333		c-0.612,0.452-1.262,0.851-1.889,1.282c-0.522,0.359-1.054,0.711-1.416,1.253c-0.596,0.894-0.593,2.059,0.009,2.859		c0.547,0.728,1.465,0.984,2.52,0.697c0.795-0.216,1.477-0.645,2.058-1.21c2.499-2.43,3.126-5.326,2.034-8.598		c-2.096-6.276-8.397-8.402-13.872-4.7c-4.217,2.851-5.952,8.376-4.058,13.41C3.184,85.943,6.263,89.241,10.746,91.153z		 M221.678,93.378c0.265-0.568,0.544-1.129,1.119-1.591c0.486,0.377,0.763,0.794,0.985,1.249c0.435,0.892,0.264,1.717-0.33,2.466		c-0.3,0.378-0.7,0.635-1.207,0.494c-0.498-0.139-0.715-0.556-0.817-1.028C221.308,94.408,221.443,93.882,221.678,93.378z		 M229.298,89.157c1.357,2.606,1.81,5.248,0.417,8.006c-1.774,3.513-5.81,5.766-9.728,5.396c-3.742-0.353-6.213-3.475-5.654-7.143		c0.391-2.565,3.095-4.932,5.67-4.955c0.067-0.001,0.135,0.076,0.226,0.13c-0.002,0.45-0.365,0.734-0.554,1.097		c-0.558,1.068-0.939,2.168-0.809,3.398c0.166,1.573,1.268,2.992,2.655,3.401c1.402,0.413,3.023-0.199,4.016-1.516		c1.358-1.799,1.369-3.922,0.032-5.888c-0.744-1.094-0.745-1.096,0.481-1.592c0.785-0.318,1.594-0.551,2.427-0.716		C228.878,88.695,229.115,88.805,229.298,89.157z M64.226,93.076c0.225-0.491,0.512-0.951,1.018-1.282		c0.675,0.582,1.045,1.323,1.304,2.126c0.117,0.362,0.144,0.746,0.036,1.12c-0.133,0.463-0.362,0.876-0.876,0.975		c-0.452,0.087-0.826-0.136-1.104-0.475C63.994,94.799,63.816,93.97,64.226,93.076z M58.777,89.074		c0.123-0.24,0.312-0.38,0.616-0.326c1.172,0.208,2.295,0.565,3.363,1.094c0.382,0.189,0.327,0.426,0.1,0.705		c-0.402,0.493-0.752,1.022-1.01,1.605c-0.839,1.895-0.231,4.351,1.416,5.609c1.074,0.82,2.278,1.161,3.566,0.595		c1.389-0.61,2.134-1.75,2.33-3.239c0.161-1.227-0.237-2.331-0.791-3.401c-0.19-0.366-0.538-0.655-0.581-1.2		c3.929-0.046,6.899,3.951,5.759,7.625c-0.784,2.528-2.556,3.933-5.096,4.361c-4.754,0.8-9.786-2.63-10.834-7.336		C57.126,92.972,57.79,90.989,58.777,89.074z"></path>
    <path class="kg2nr81x" d="M142.65,65.056c0.908,1.219,1.811,1.22,2.722,0.003c1.828-2.444,2.992-5.181,3.666-8.145		c0.552-2.427,0.356-4.778-0.611-7.076c-0.493-1.172-1.259-2.107-2.321-2.777c-1.378-0.869-2.804-0.87-4.182-0.003		c-1.023,0.643-1.791,1.532-2.271,2.66c-0.619,1.456-0.983,2.963-0.973,4.83c0.015,0.188,0.022,0.655,0.094,1.113		C139.317,59.1,140.561,62.252,142.65,65.056z"></path>	<path class="kg2nr81x" d="M144.5,69.732c-0.074,1.018,0.883,1.643,1.795,1.177c0.22-0.112,0.428-0.281,0.592-0.468		c1.575-1.798,3.513-3.16,5.432-4.546c1.918-1.386,3.88-2.714,5.701-4.231c0.911-0.759,1.78-1.563,2.447-2.556		c0.456-0.678,0.747-1.417,0.786-2.158c-0.024-1.113-0.689-2.004-1.709-2.379c-1.065-0.392-2.085-0.17-3.082,0.243		c-1.387,0.574-2.565,1.467-3.643,2.492c-3.48,3.31-5.972,7.313-8.071,11.586C144.62,69.15,144.521,69.446,144.5,69.732z"></path>	<path class="kg2nr81x" d="M128.154,59.889c0.641,0.735,1.362,1.387,2.119,2c1.809,1.464,3.73,2.775,5.614,4.136		c1.85,1.338,3.711,2.661,5.231,4.394c0.19,0.217,0.436,0.417,0.697,0.534c0.863,0.387,1.753-0.243,1.725-1.19		c-0.009-0.303-0.112-0.576-0.244-0.845c-2.123-4.31-4.638-8.347-8.159-11.678c-0.987-0.934-2.071-1.741-3.311-2.317		c-0.695-0.323-1.423-0.532-2.044-0.555c-2.287,0.003-3.493,1.712-2.763,3.703C127.27,58.755,127.679,59.345,128.154,59.889z"></path>	<path class="kg2nr81x" d="M38.766,86.828c1.175,0.004,2.181-1.002,2.171-2.171c-0.01-1.131-0.969-2.102-2.085-2.112		c-1.233-0.011-2.199,0.903-2.217,2.1C36.616,85.851,37.566,86.824,38.766,86.828z"></path>	<path class="kg2nr81x" d="M249.23,86.829c1.194,0.011,2.173-0.961,2.169-2.155c-0.004-1.187-0.969-2.123-2.196-2.129		c-1.121-0.005-2.081,0.944-2.107,2.083C247.07,85.809,248.048,86.818,249.23,86.829z"></path>	<path class="kg2nr81x" d="M233.837,84.455c0.999-0.03,1.84-0.921,1.797-1.903c-0.042-0.976-0.922-1.801-1.923-1.803		c-0.968-0.001-1.846,0.932-1.787,1.901C231.986,83.666,232.854,84.485,233.837,84.455z"></path>	<path class="kg2nr81x" d="M54.268,84.458c0.987-0.019,1.823-0.882,1.831-1.888c0.008-0.929-0.822-1.796-1.743-1.82		c-1.049-0.027-1.971,0.857-1.964,1.884C52.4,83.625,53.276,84.477,54.268,84.458z"></path>	<path class="kg2nr81x" d="M46.528,85.03c0.946-0.027,1.752-0.872,1.724-1.809c-0.028-0.958-0.828-1.689-1.834-1.676		c-0.996,0.012-1.73,0.784-1.698,1.784C44.751,84.297,45.559,85.058,46.528,85.03z"></path>	<path class="kg2nr81x" d="M145.763,98.555c0.058-0.995-0.674-1.813-1.661-1.856c-1.015-0.044-1.788,0.661-1.836,1.675		c-0.047,0.985,0.7,1.833,1.656,1.881C144.888,100.305,145.705,99.549,145.763,98.555z"></path>	<path class="kg2nr81x" d="M241.496,85.03c0.965,0.028,1.781-0.737,1.813-1.701c0.033-0.989-0.71-1.769-1.701-1.784		c-1.006-0.015-1.807,0.715-1.835,1.674C239.745,84.155,240.551,85.002,241.496,85.03z"></path>	<path class="kg2nr81x" d="M152.508,100.869c-0.827,0.046-1.463,0.766-1.433,1.623c0.03,0.842,0.714,1.518,1.546,1.527		c0.87,0.009,1.603-0.748,1.575-1.629C154.169,101.525,153.386,100.82,152.508,100.869z"></path>	<path class="kg2nr81x" d="M135.433,100.87c-0.908,0.003-1.619,0.716-1.601,1.605c0.017,0.837,0.702,1.528,1.531,1.544		c0.88,0.017,1.604-0.716,1.591-1.611C136.943,101.558,136.26,100.867,135.433,100.87z"></path>	<path class="kg2nr81x" d="M139.459,102.047c0.841-0.007,1.52-0.693,1.518-1.532c-0.002-0.837-0.691-1.52-1.531-1.517		c-0.837,0.003-1.519,0.692-1.516,1.531C137.934,101.364,138.629,102.054,139.459,102.047z"></path>	<path class="kg2nr81x" d="M150.101,100.522c-0.002-0.831-0.697-1.524-1.529-1.523c-0.844,0-1.52,0.679-1.518,1.525		c0.002,0.848,0.676,1.523,1.521,1.525C149.4,102.05,150.103,101.347,150.101,100.522z"></path>	<path class="kg2nr81x" d="M130.596,102.507c-0.849,0.022-1.518,0.733-1.469,1.564c0.045,0.78,0.718,1.433,1.489,1.446		c0.834,0.014,1.518-0.674,1.517-1.526C132.131,103.133,131.46,102.485,130.596,102.507z"></path>	<path class="kg2nr81x" d="M157.468,105.513c0.825-0.05,1.484-0.802,1.424-1.626c-0.057-0.789-0.718-1.39-1.521-1.383		c-0.862,0.008-1.501,0.678-1.471,1.545C155.929,104.904,156.635,105.563,157.468,105.513z"></path>	<path class="kg2nr81x" d="M162.907,102.84c-0.727,0.029-1.361,0.705-1.328,1.415c0.033,0.72,0.713,1.347,1.431,1.318		c0.731-0.029,1.348-0.692,1.319-1.419C164.3,103.424,163.637,102.811,162.907,102.84z"></path>	<path class="kg2nr81x" d="M125.014,102.841c-0.739,0.029-1.341,0.68-1.311,1.417c0.03,0.735,0.69,1.347,1.417,1.315		c0.724-0.032,1.357-0.712,1.326-1.422C126.415,103.425,125.745,102.813,125.014,102.841z"></path>	<path class="kg2nr81x" d="M113.987,98.945c-0.759-0.045-1.408,0.531-1.438,1.277c-0.03,0.741,0.581,1.373,1.337,1.384		c0.751,0.011,1.393-0.612,1.384-1.344C115.261,99.577,114.686,98.986,113.987,98.945z"></path>	<path class="kg2nr81x" d="M175.482,100.193c-0.051-0.742-0.717-1.305-1.474-1.246c-0.697,0.054-1.262,0.66-1.253,1.344		c0.01,0.738,0.657,1.341,1.412,1.314C174.917,101.579,175.532,100.919,175.482,100.193z"></path>	<path class="kg2nr81x" d="M119.875,101.467c-0.771,0-1.374,0.616-1.339,1.369c0.032,0.702,0.62,1.264,1.323,1.266		c0.757,0.002,1.357-0.623,1.33-1.383C121.163,101.998,120.607,101.468,119.875,101.467z"></path>	<path class="kg2nr81x" d="M168.04,101.468c-0.722,0.055-1.227,0.63-1.197,1.362c0.029,0.714,0.595,1.266,1.305,1.272		c0.758,0.007,1.362-0.616,1.334-1.375C169.454,101.97,168.811,101.409,168.04,101.468z"></path>	<path class="kg2nr81x" d="M287.018,208.462c-1.135-5.606-4.707-9.45-9.949-11.673c-5.117-2.171-10.456-3.024-16.006-2.399		c-0.228,0.026-0.497,0.13-0.71-0.188c0.121-0.278,0.268-0.578,0.385-0.889c0.579-1.54-0.128-2.709-1.762-2.892		c-0.676-0.076-1.349-0.017-2.016,0.133c-2.65,0.596-4.973,1.868-7.154,3.436c-1.477,1.061-2.943,2.138-4.427,3.189		c-0.73,0.517-1.529,0.901-2.422,1.059c-2.289,0.405-4.573,0.849-6.87,1.203c-1.362,0.21-2.745,0.28-4.101,0.195		c-0.027-0.183-0.05-0.23-0.037-0.266c0.165-0.477,0.333-0.953,0.504-1.428c1.068-2.957,0.886-5.84-0.672-8.567		c-2.35-4.112-5.995-6.253-10.67-6.498c-4.105-0.215-7.601,2.119-8.897,5.838c-1.07,3.072-0.615,5.977,1.632,8.39		c2.204,2.368,4.87,3.632,8.207,2.683c0.282-0.08,0.551-0.219,0.846-0.026c1.319,0.862,2.795,1.379,4.273,1.84		c-0.054,0.399-0.316,0.568-0.521,0.771c-1.928,1.917-4.194,3.272-6.807,4.026c-3.653,1.053-7.352,1.009-11.065,0.397		c-5.559-0.917-10.76-2.898-15.799-5.354c-4.037-1.967-7.832-4.358-11.683-6.65c-3.125-1.86-6.232-3.753-9.541-5.282		c-3.767-1.741-7.645-2.901-11.872-2.705c-7.625,0.355-13.41,4.843-15.552,12.17c-0.074,0.253,0.029,0.622-0.43,0.723		c-0.121-0.397-0.239-0.79-0.362-1.181c-1.043-3.317-2.854-6.132-5.604-8.274c-4.096-3.191-8.829-3.865-13.82-3.241		c-2.923,0.366-5.64,1.452-8.283,2.717c-4.625,2.214-8.934,4.986-13.324,7.612c-4.655,2.785-9.437,5.306-14.554,7.139		c-4.684,1.678-9.468,2.879-14.499,2.732c-2.691-0.079-5.293-0.569-7.739-1.745c-1.886-0.907-3.517-2.142-5.034-3.803		c1.639-0.504,3.109-1.025,4.423-1.884c0.345-0.225,0.653-0.048,0.966,0.053c1.118,0.36,2.253,0.38,3.384,0.127		c4.135-0.927,6.992-4.585,6.851-8.741c-0.141-4.159-3.25-7.547-7.481-8.193c-3.377-0.516-6.387,0.426-9.084,2.375		c-4.442,3.211-5.856,8.142-3.919,13.25c0.11,0.289,0.385,0.568,0.182,0.931c-0.459,0.179-0.926,0.087-1.387,0.076		c-2.934-0.066-5.78-0.741-8.656-1.221c-1.548-0.258-2.899-0.869-4.143-1.79c-1.359-1.007-2.717-2.018-4.102-2.99		c-2.024-1.419-4.195-2.534-6.628-3.084c-0.752-0.17-1.511-0.242-2.267-0.11c-1.426,0.247-2.049,1.351-1.594,2.717		c0.131,0.394,0.451,0.724,0.404,1.22c-0.252,0-0.505,0.024-0.751-0.004c-5.551-0.615-10.862,0.316-16.008,2.415		c-3.551,1.448-6.18,3.93-8.154,7.146c-1.189,1.938-1.875,4.051-1.964,6.351c-0.187,4.861,2.553,9.139,7.01,10.882		c3.759,1.47,7.371,0.51,9.897-2.633c1.024-1.275,1.739-2.709,2.057-4.31c0.612-3.074-0.229-5.685-2.612-7.76		c-0.515-0.449-1.105-0.783-1.764-0.978c-1.027-0.304-1.959-0.047-2.526,0.683c-0.614,0.789-0.632,1.963-0.039,2.856		c0.335,0.504,0.814,0.854,1.306,1.187c0.665,0.45,1.349,0.875,1.992,1.355c0.637,0.475,1.006,1.096,1.005,1.944		c-0.003,2.648-3.075,6.449-6.876,5.712c-1.224-0.237-2.349-0.686-3.367-1.406c-3.119-2.204-4.358-6.331-3.041-10.205		c0.99-2.912,2.829-5.167,5.389-6.847c1.9-1.246,4.002-1.992,6.204-2.491c5.626-1.275,11.27-0.97,16.899-0.098		c4.513,0.699,8.932,1.889,13.415,2.756c3.739,0.723,7.476,1.485,11.318,1.19c0.67-0.052,0.987,0.301,1.353,0.731		c2.656,3.124,5.96,5.215,9.951,6.204c4.369,1.082,8.776,1.278,13.215,0.525c3.974-0.675,7.82-1.808,11.552-3.333		c0.454-0.185,0.913-0.357,1.348-0.526c0.163,0.228,0.102,0.399,0.057,0.554c-0.24,0.835-0.218,1.627,0.554,2.168		c0.796,0.558,1.618,0.327,2.389-0.113c0.74-0.421,1.371-0.987,1.982-1.575c1.469-1.412,2.78-2.969,3.969-4.613		c2.531-3.5,5.729-6.164,9.578-8.121c2.715-1.381,5.384-2.841,8.298-3.781c3.474-1.121,6.978-1.251,10.503-0.312		c5.041,1.343,9.278,6.101,9.692,11.092c0.459,5.53-1.226,10.378-5.255,14.259c-3.282,3.162-7.208,4.55-11.753,3.518		c-3.577-0.812-6.167-2.905-7.41-6.434c-0.691-1.963-0.584-3.918,0.482-5.755c0.756-1.302,1.917-1.852,3.408-1.739		c0.577,0.044,1.013,0.384,1.488,0.661c0.592,0.345,1.127,0.26,1.493-0.159c0.4-0.458,0.358-1.045-0.142-1.594		c-0.529-0.582-1.215-0.917-1.958-1.118c-2.365-0.637-4.893,0.355-6.306,2.489c-1.22,1.842-1.671,3.886-1.316,6.056		c0.848,5.189,4.057,8.375,8.92,9.856c4.775,1.454,9.227,0.412,13.192-2.547c4.121-3.076,6.497-7.26,7.459-12.281		c0.039-0.201-0.083-0.544,0.385-0.539c0.255,1.186,0.474,2.392,0.894,3.54c2.054,5.623,5.627,9.808,11.441,11.727		c5.671,1.871,11.708,0.051,15.171-4.486c1.918-2.513,2.713-5.358,2.047-8.478c-0.521-2.44-1.773-4.417-4.302-5.213		c-1.684-0.53-3.354-0.436-4.825,0.692c-0.777,0.596-0.941,1.284-0.507,1.844c0.406,0.524,0.969,0.575,1.791,0.029		c0.768-0.51,1.574-0.594,2.427-0.408c1.162,0.254,1.932,1.004,2.42,2.058c1.195,2.58,0.814,5.062-0.671,7.36		c-1.532,2.371-3.74,3.872-6.527,4.466c-3.796,0.81-7.232-0.049-10.296-2.354c-3.818-2.872-5.806-6.811-6.597-11.465		c-1.246-7.332,4.022-13.899,10.063-15.206c4.262-0.922,8.312-0.413,12.283,1.238c3.133,1.303,6.07,2.977,8.99,4.689		c1.587,0.93,3.007,2.046,4.184,3.456c1.382,1.656,2.737,3.335,4.109,4.999c1.051,1.275,2.157,2.499,3.451,3.536		c0.561,0.45,1.146,0.875,1.887,0.993c1.295,0.206,2.142-0.577,2.054-1.883c-0.024-0.361-0.274-0.712-0.042-1.145		c2.825,1.289,5.764,2.214,8.747,3.007c5.093,1.354,10.213,1.733,15.445,0.778c4.77-0.871,8.784-2.956,11.901-6.682		c0.432-0.517,0.857-0.703,1.513-0.657c1.776,0.124,3.55,0.039,5.316-0.202c4.782-0.653,9.483-1.728,14.184-2.784		c5.184-1.165,10.405-1.832,15.724-1.671c3.066,0.093,6.069,0.561,8.954,1.6c4.238,1.526,7.386,4.241,8.864,8.611		c1.536,4.541-0.501,9.291-4.674,11.029c-3.463,1.443-6.946-0.041-8.304-3.537c-0.716-1.843-0.388-2.909,1.252-4.033		c0.523-0.359,1.075-0.677,1.585-1.052c0.372-0.274,0.746-0.571,1.035-0.926c0.693-0.854,0.71-2.129,0.097-2.958		c-0.578-0.78-1.542-1.036-2.63-0.696c-0.572,0.179-1.082,0.476-1.552,0.843c-1.311,1.023-2.171,2.345-2.641,3.935		c-1.332,4.506,1.904,9.957,6.211,11.231c1.108,0.328,2.233,0.403,3.388,0.237C283.462,220.987,288.497,215.767,287.018,208.462z		 M66.442,194.393c-0.227,0.686-0.615,1.278-1.171,1.863c-0.525-0.376-0.793-0.803-1.021-1.255		c-0.397-0.788-0.303-1.561,0.167-2.273c0.307-0.465,0.716-0.86,1.353-0.724c0.477,0.102,0.878,0.748,0.862,1.407		C66.624,193.741,66.546,194.079,66.442,194.393z M58.696,198.803c-1.406-2.707-1.772-5.432-0.233-8.229		c2.011-3.656,6.46-5.8,10.387-4.979c2.863,0.599,4.868,2.964,4.924,5.811c0.056,2.813-1.889,5.315-4.687,6.027		c-0.411,0.105-0.825,0.154-1.422,0.032c0.56-0.93,1.049-1.717,1.309-2.615c0.413-1.427,0.266-2.766-0.623-3.976		c-1.111-1.513-2.845-1.886-4.497-0.997c-1.972,1.06-2.911,3.699-2.086,5.808c0.312,0.796,0.858,1.444,1.378,2.236		c-1.146,0.756-2.403,1.056-3.662,1.347C59.078,199.36,58.87,199.138,58.696,198.803z M223.789,194.974		c-0.224,0.455-0.497,0.877-0.997,1.27c-0.675-0.593-1.034-1.298-1.289-2.058c-0.091-0.273-0.122-0.581-0.107-0.87		c0.031-0.578,0.248-1.107,0.834-1.294c0.623-0.199,1.044,0.223,1.36,0.685C224.073,193.412,224.181,194.181,223.789,194.974z		 M229.289,198.88c-0.147,0.29-0.36,0.466-0.708,0.393c-1.276-0.268-2.525-0.61-3.698-1.329c0.376-0.564,0.731-1.036,1.022-1.544		c1.019-1.781,0.857-3.867-0.453-5.444c-0.984-1.183-2.23-1.828-3.805-1.451c-1.438,0.344-2.557,1.732-2.767,3.303		c-0.17,1.274,0.211,2.418,0.793,3.524c0.192,0.365,0.547,0.654,0.549,1.12c-0.422,0.19-0.84,0.088-1.245-0.01		c-2.732-0.66-4.717-3.128-4.733-5.868c-0.017-2.845,1.934-5.278,4.77-5.946c5.026-1.184,10.65,2.545,11.487,7.653		C230.828,195.287,230.184,197.119,229.289,198.88z"></path>	<path class="kg2nr81x" d="M145.183,222.706c-0.662-0.873-1.683-0.858-2.352,0.019c-0.537,0.704-1.032,1.447-1.474,2.214		c-1.586,2.749-2.505,5.706-2.679,8.338c0.002,2.181,0.388,3.727,1.054,5.208c0.502,1.115,1.305,1.996,2.355,2.582		c1.26,0.704,2.61,0.702,3.869-0.011c1.047-0.594,1.849-1.475,2.347-2.59c0.753-1.684,1.199-3.45,1.023-5.295		C148.956,229.292,147.535,225.804,145.183,222.706z"></path>	<path class="kg2nr81x" d="M143.521,218.402c0.14-1.017-0.737-1.689-1.704-1.332c-0.331,0.122-0.57,0.362-0.79,0.617		c-1.282,1.484-2.845,2.641-4.415,3.788c-1.569,1.147-3.158,2.266-4.727,3.412c-1.161,0.848-2.289,1.737-3.294,2.771		c-0.622,0.64-1.184,1.328-1.524,2.162c-0.837,2.052,0.336,3.791,2.633,3.801c0.836,0.029,1.663-0.28,2.46-0.688		c1.525-0.781,2.805-1.883,3.969-3.117c2.955-3.131,5.221-6.732,7.11-10.582C143.366,218.973,143.481,218.688,143.521,218.402z"></path>	<path class="kg2nr81x" d="M158.989,227.221c-1.416-1.34-3.015-2.448-4.58-3.599c-2.616-1.924-5.411-3.628-7.578-6.11		c-0.227-0.26-0.508-0.439-0.857-0.504c-0.851-0.161-1.532,0.402-1.475,1.261c0.019,0.286,0.111,0.584,0.238,0.843		c2.074,4.235,4.546,8.199,7.966,11.501c1.006,0.972,2.108,1.825,3.382,2.431c0.692,0.329,1.405,0.583,2.186,0.577		c2.35,0.052,3.578-1.76,2.639-3.905C160.477,228.727,159.76,227.951,158.989,227.221z"></path>	<path class="kg2nr81x" d="M249.214,201.186c-1.179,0.021-2.152,1.041-2.117,2.221c0.034,1.157,0.962,2.049,2.123,2.04		c1.26-0.01,2.186-0.91,2.179-2.118C251.391,202.136,250.401,201.165,249.214,201.186z"></path>	<path class="kg2nr81x" d="M38.852,201.191c-1.14-0.046-2.125,0.832-2.212,1.973c-0.094,1.225,0.756,2.192,1.999,2.274		c1.229,0.082,2.232-0.788,2.295-1.99C40.996,202.284,40.031,201.238,38.852,201.191z"></path>	<path class="kg2nr81x" d="M233.865,203.591c-1.058-0.043-1.947,0.814-1.945,1.874c0.001,0.929,0.83,1.766,1.764,1.782		c1.071,0.018,1.972-0.848,1.952-1.876C235.618,204.42,234.831,203.63,233.865,203.591z"></path>	<path class="kg2nr81x" d="M54.14,203.591c-0.964,0.047-1.738,0.845-1.745,1.799c-0.007,1.039,0.889,1.886,1.965,1.856		c0.936-0.026,1.75-0.869,1.739-1.801C56.087,204.377,55.202,203.539,54.14,203.591z"></path>	<path class="kg2nr81x" d="M143.987,191.341c0.982,0.015,1.763-0.757,1.776-1.755c0.013-0.999-0.742-1.784-1.726-1.797		c-0.993-0.012-1.755,0.738-1.773,1.746C142.246,190.53,143.007,191.327,143.987,191.341z"></path>	<path class="kg2nr81x" d="M241.522,203.009c-0.97,0.012-1.783,0.848-1.749,1.8c0.035,0.987,0.814,1.668,1.874,1.638		c0.976-0.028,1.668-0.733,1.665-1.698C243.309,203.762,242.522,202.997,241.522,203.009z"></path>	<path class="kg2nr81x" d="M46.477,203.008c-0.996,0-1.771,0.778-1.76,1.768c0.01,0.967,0.704,1.655,1.686,1.672		c1.052,0.018,1.833-0.685,1.85-1.664C48.27,203.831,47.447,203.008,46.477,203.008z"></path>	<path class="kg2nr81x" d="M135.287,184.031c-0.843,0.051-1.474,0.743-1.452,1.594c0.022,0.885,0.76,1.549,1.675,1.508		c0.839-0.037,1.469-0.732,1.443-1.594C136.926,184.638,136.195,183.976,135.287,184.031z"></path>	<path class="kg2nr81x" d="M152.633,184.031c-0.911,0.001-1.587,0.701-1.558,1.614c0.028,0.861,0.699,1.506,1.548,1.487		c0.927-0.021,1.608-0.719,1.573-1.614C154.162,184.672,153.488,184.03,152.633,184.031z"></path>	<path class="kg2nr81x" d="M148.553,189.031c0.813,0.014,1.538-0.694,1.55-1.511c0.012-0.822-0.687-1.536-1.511-1.542		c-0.845-0.007-1.529,0.662-1.541,1.505C147.04,188.321,147.714,189.016,148.553,189.031z"></path>	<path class="kg2nr81x" d="M139.484,189.031c0.832-0.02,1.514-0.731,1.496-1.56c-0.018-0.834-0.719-1.506-1.558-1.494		c-0.829,0.012-1.51,0.721-1.492,1.553C137.947,188.359,138.663,189.05,139.484,189.031z"></path>	<path class="kg2nr81x" d="M129.123,183.997c-0.02,0.81,0.703,1.549,1.516,1.55c0.78,0.001,1.447-0.638,1.491-1.426		c0.048-0.862-0.583-1.565-1.432-1.597C129.853,182.492,129.145,183.154,129.123,183.997z"></path>	<path class="kg2nr81x" d="M157.433,185.545c0.77-0.027,1.438-0.7,1.461-1.469c0.024-0.846-0.643-1.541-1.49-1.551		c-0.857-0.01-1.512,0.649-1.507,1.518C155.902,184.886,156.606,185.575,157.433,185.545z"></path>	<path class="kg2nr81x" d="M112.556,187.609c-0.082,0.717,0.511,1.432,1.242,1.496c0.714,0.063,1.42-0.554,1.47-1.282		c0.048-0.707-0.596-1.41-1.316-1.437C113.284,186.362,112.634,186.932,112.556,187.609z"></path>	<path class="kg2nr81x" d="M162.961,182.474c-0.746-0.001-1.378,0.613-1.381,1.342c-0.003,0.732,0.621,1.34,1.377,1.341		c0.765,0.001,1.37-0.59,1.371-1.338C164.328,183.076,163.718,182.476,162.961,182.474z"></path>	<path class="kg2nr81x" d="M125.027,182.478c-0.764,0.019-1.343,0.622-1.322,1.378c0.021,0.756,0.629,1.321,1.4,1.299		c0.75-0.021,1.368-0.654,1.341-1.377C126.42,183.051,125.775,182.459,125.027,182.478z"></path>	<path class="kg2nr81x" d="M174.101,189.112c0.706,0.011,1.394-0.673,1.385-1.377c-0.008-0.663-0.616-1.298-1.287-1.345		c-0.714-0.049-1.416,0.586-1.445,1.308C172.725,188.405,173.389,189.101,174.101,189.112z"></path>	<path class="kg2nr81x" d="M119.865,183.897c-0.68,0.001-1.299,0.6-1.33,1.288c-0.033,0.743,0.591,1.395,1.336,1.396		c0.7,0.001,1.29-0.569,1.318-1.273C121.218,184.558,120.598,183.896,119.865,183.897z"></path>	<path class="kg2nr81x" d="M168.152,183.899c-0.735,0.003-1.343,0.66-1.31,1.416c0.031,0.709,0.615,1.27,1.318,1.265		c0.749-0.005,1.358-0.652,1.32-1.402C169.446,184.484,168.836,183.897,168.152,183.899z"></path></g></svg>